<?xml version="1.0" encoding="UTF-8" standalone="no"?>
<!DOCTYPE svg PUBLIC "-//W3C//DTD SVG 1.1//EN" "http://www.w3.org/Graphics/SVG/1.1/DTD/svg11.dtd">
<svg width="100%" height="100%" viewBox="0 0 495 68" version="1.1" xmlns="http://www.w3.org/2000/svg" xmlns:xlink="http://www.w3.org/1999/xlink" xml:space="preserve" xmlns:serif="http://www.serif.com/" style="fill-rule:evenodd;clip-rule:evenodd;stroke-linejoin:round;stroke-miterlimit:2;">
    <g transform="matrix(1,0,0,1,-239.397,-1029.37)">
        <g transform="matrix(1,0,0,1,85.7633,49.2322)">
            <g transform="matrix(1,0,0,1,184.12,1038.65)">
                <path d="M0,-49.233C-13.924,-49.233 -19.657,-36.857 -19.657,-24.662C-19.657,-12.377 -15.197,-0.001 -0.364,-0.001C9.919,-0.001 18.109,-7.099 18.2,-17.473L-0.182,-17.473L-0.182,-26.21L29.212,-26.21L29.212,7.916L21.75,7.916L19.384,-1.002L19.201,-1.002C14.833,5.551 8.736,9.282 -1.092,9.282C-19.93,9.282 -30.486,-5.005 -30.486,-24.662C-30.486,-44.228 -18.656,-58.515 0.091,-58.515C17.018,-58.515 26.118,-49.324 28.12,-36.857L17.291,-36.857C15.652,-44.591 9.646,-49.233 0,-49.233" style="fill:white;fill-rule:nonzero;"/>
            </g>
        </g>
        <g transform="matrix(1,0,0,1,85.7633,49.2322)">
            <g transform="matrix(1,0,0,1,248.911,1046.3)">
                <path d="M0,-47.049L0,-38.04L-0.183,-38.04C-9.374,-39.587 -16.745,-33.399 -16.745,-23.48L-16.745,0.272L-26.3,0.272L-26.3,-46.23L-16.745,-46.23L-16.745,-37.493L-16.562,-37.493C-14.105,-43.318 -10.283,-47.321 -4.187,-47.321C-2.548,-47.321 -1.365,-47.232 0,-47.049" style="fill:white;fill-rule:nonzero;"/>
            </g>
        </g>
        <g transform="matrix(1,0,0,1,85.7633,49.2322)">
            <g transform="matrix(1,0,0,1,274.389,1006.62)">
                <path d="M0,33.489C9.101,33.489 13.833,26.3 13.833,16.745C13.833,7.098 9.101,0 0,0C-9.101,0 -13.832,7.098 -13.832,16.745C-13.832,26.3 -9.101,33.489 0,33.489M0,41.315C-14.561,41.315 -23.388,31.214 -23.388,16.745C-23.388,2.275 -14.561,-7.826 0,-7.826C14.561,-7.826 23.388,2.275 23.388,16.745C23.388,31.214 14.561,41.315 0,41.315" style="fill:white;fill-rule:nonzero;"/>
            </g>
        </g>
        <g transform="matrix(1,0,0,1,85.7633,49.2322)">
            <g transform="matrix(1,0,0,1,344.55,1047.84)">
                <path d="M0,-47.776L0,-1.274L-9.556,-1.274L-9.556,-7.28L-9.737,-7.28C-12.194,-3.639 -17.018,0 -25.025,0C-33.671,0 -40.496,-5.005 -40.496,-15.652L-40.496,-47.776L-30.85,-47.776L-30.85,-18.382C-30.85,-12.103 -28.211,-8.098 -21.659,-8.098C-14.287,-8.098 -9.556,-12.558 -9.556,-19.474L-9.556,-47.776L0,-47.776Z" style="fill:white;fill-rule:nonzero;"/>
            </g>
        </g>
        <g transform="matrix(1,0,0,1,85.7633,49.2322)">
            <g transform="matrix(1,0,0,1,394.144,1030.92)">
                <path d="M0,-16.47L0,15.653L-9.646,15.653L-9.646,-13.741C-9.646,-20.02 -12.285,-24.024 -18.838,-24.024C-26.209,-24.024 -30.941,-19.565 -30.941,-12.649L-30.941,15.653L-40.497,15.653L-40.497,-30.849L-30.941,-30.849L-30.941,-24.843L-30.76,-24.843C-28.303,-28.484 -23.479,-32.123 -15.471,-32.123C-6.825,-32.123 0,-27.118 0,-16.47" style="fill:white;fill-rule:nonzero;"/>
            </g>
        </g>
        <g transform="matrix(1,0,0,1,85.7633,49.2322)">
            <g transform="matrix(1,0,0,1,435.456,1006.07)">
                <path d="M0,17.291C0,6.916 -4.822,0.546 -12.649,0.546C-21.021,0.546 -25.48,8.19 -25.48,17.291C-25.48,26.391 -21.021,34.035 -12.649,34.035C-4.822,34.035 0,27.574 0,17.291M9.646,-24.57L9.646,40.496L0.092,40.496L0.092,35.127L-0.091,35.127C-2.548,38.312 -7.098,41.861 -14.287,41.861C-26.209,41.861 -35.036,32.579 -35.036,17.291C-35.036,2.002 -26.209,-7.28 -14.287,-7.28C-7.098,-7.28 -2.548,-3.913 -0.091,-0.363L0.092,-0.363L0.092,-24.57L9.646,-24.57Z" style="fill:white;fill-rule:nonzero;"/>
            </g>
        </g>
        <g transform="matrix(1,0,0,1,85.7633,49.2322)">
            <g transform="matrix(1,0,0,1,521.633,999.159)">
                <path d="M0,29.757C0,40.132 -7.826,48.777 -24.207,48.777C-40.133,48.777 -52.236,40.495 -52.873,25.753L-42.044,25.753C-41.498,34.034 -35.855,39.494 -24.207,39.494C-14.561,39.494 -10.83,35.218 -10.83,30.212C-10.83,22.477 -16.381,21.021 -29.212,17.835C-39.405,15.288 -50.416,11.374 -50.416,-1.002C-50.416,-12.559 -41.498,-19.02 -27.302,-19.02C-13.014,-19.02 -2.64,-11.558 -1.729,1.82L-12.559,1.82C-13.56,-5.734 -18.292,-9.738 -27.302,-9.738C-35.036,-9.738 -39.678,-6.826 -39.678,-2.003C-39.678,5.095 -33.581,6.369 -24.48,8.644C-10.557,12.194 0,15.196 0,29.757" style="fill:white;fill-rule:nonzero;"/>
            </g>
        </g>
        <g transform="matrix(1,0,0,1,85.7633,49.2322)">
            <g transform="matrix(1,0,0,1,603.803,1046.57)">
                <path d="M0,-65.066L0,-32.943L29.485,-65.066L42.407,-65.066L17.108,-37.493L43.954,0L31.305,0L10.01,-29.939L0,-19.201L0,0L-10.83,0L-10.83,-65.066L0,-65.066Z" style="fill:white;fill-rule:nonzero;"/>
            </g>
        </g>
        <g transform="matrix(1,0,0,1,85.7633,49.2322)">
            <g transform="matrix(1,0,0,1,555.393,1046.57)">
                <path d="M0,-65.066L-25.3,-65.066L-25.3,-37.296L-14.47,-37.296L-14.47,-55.875L-0.547,-55.875C14.014,-55.875 18.109,-44.955 18.109,-32.488C18.109,-20.02 14.014,-9.191 -0.547,-9.191L-14.47,-9.191L-14.47,-25.296L-25.3,-25.296L-25.3,0L0.272,0C18.291,0 28.938,-11.556 28.938,-32.488C28.938,-53.418 17.927,-65.066 0,-65.066" style="fill:white;fill-rule:nonzero;"/>
            </g>
        </g>
    </g>
</svg>
